<svg width="64" height="64" viewBox="0 0 64 64" fill="none" xmlns="http://www.w3.org/2000/svg">
<rect width="64" height="64" fill="white"/>
<path d="M13.1223 54C11.524 54 10.105 53.7121 8.86544 53.1363C7.65851 52.5605 6.71254 51.6968 6.02752 50.5453C5.34251 49.3937 5 47.9862 5 46.3228C5 44.8193 5.30989 43.1719 5.92966 41.3806C6.54944 39.5892 7.67482 37.7179 9.30581 35.7666C10.9368 33.8153 13.2854 31.88 16.3517 29.9607V14.0785H8.9633V10H21V45.5551C21 47.2824 20.6738 48.7699 20.0214 50.0174C19.4016 51.297 18.5046 52.2726 17.3303 52.9444C16.156 53.6481 14.7533 54 13.1223 54ZM12.7798 49.8735C13.4648 49.8735 14.0683 49.7136 14.5902 49.3937C15.1448 49.1058 15.5688 48.6419 15.8624 48.0022C16.156 47.3624 16.3028 46.5787 16.3028 45.651V34.711C14.1825 36.3104 12.633 37.8299 11.6544 39.2694C10.6758 40.6768 10.0561 41.9564 9.79511 43.108C9.53415 44.2276 9.40367 45.1392 9.40367 45.843C9.40367 47.1865 9.74618 48.1941 10.4312 48.8659C11.1162 49.5376 11.8991 49.8735 12.7798 49.8735Z" fill="#193B35"/>
<path d="M51.3953 54C49.8589 54 48.4916 53.6853 47.2933 53.0558C46.1257 52.4578 45.2039 51.5608 44.5279 50.3648C43.852 49.1688 43.514 47.7368 43.514 46.0687C43.514 45.6595 43.5293 45.2346 43.5601 44.794C43.5908 44.3848 43.6369 43.9599 43.6983 43.5193C41.1788 43.6767 38.8436 43.3777 36.6927 42.6223C34.5419 41.867 32.6676 40.7496 31.0698 39.2704C29.4721 37.7597 28.2277 35.9499 27.3366 33.8412C26.4455 31.701 26 29.3562 26 26.8069C26 24.4778 26.3841 22.3062 27.1522 20.2918C27.9204 18.2461 29.0265 16.4521 30.4707 14.9099C31.9148 13.3677 33.6508 12.1717 35.6788 11.3219C37.7374 10.4406 40.0112 10 42.5 10C44.9888 10 47.2472 10.4249 49.2751 11.2747C51.3031 12.1245 53.0391 13.3205 54.4832 14.8627C55.9274 16.3734 57.0335 18.1202 57.8017 20.103C58.6006 22.0858 59 24.226 59 26.5236V45.5494C59 47.2489 58.6927 48.7282 58.0782 49.9871C57.4637 51.2775 56.588 52.269 55.4511 52.9614C54.345 53.6538 52.993 54 51.3953 54ZM51.1187 49.9399C52.1327 49.9399 52.9623 49.5622 53.6075 48.8069C54.2528 48.083 54.5754 47.0286 54.5754 45.6438V34.4077C53.0084 35.4464 51.764 36.5007 50.8422 37.5708C49.9204 38.6409 49.229 39.6795 48.7682 40.6867C48.338 41.6938 48.0461 42.6223 47.8925 43.4721C47.7696 44.3219 47.7081 45.03 47.7081 45.5966C47.7081 46.5093 47.8617 47.2804 48.169 47.9099C48.507 48.5708 48.9371 49.0744 49.4595 49.4206C49.9818 49.7668 50.5349 49.9399 51.1187 49.9399ZM42.5 39.6481C42.9916 39.6481 43.4525 39.6323 43.8827 39.6009C44.3128 39.5379 44.7737 39.4435 45.2654 39.3176C45.6955 38.2475 46.2947 37.1617 47.0628 36.0601C47.8617 34.9585 48.8603 33.8727 50.0587 32.8026C51.2877 31.701 52.7933 30.6781 54.5754 29.7339V26.5236C54.5754 24.7296 54.2682 23.0773 53.6536 21.5665C53.0698 20.0243 52.2249 18.7024 51.1187 17.6009C50.0433 16.4678 48.7682 15.5866 47.2933 14.9571C45.8184 14.2961 44.2207 13.9657 42.5 13.9657C40.7486 13.9657 39.1355 14.2961 37.6606 14.9571C36.2165 15.5866 34.9413 16.4835 33.8352 17.6481C32.7598 18.8126 31.9148 20.1817 31.3003 21.7554C30.7165 23.2976 30.4246 24.9814 30.4246 26.8069C30.4246 28.6323 30.7165 30.3319 31.3003 31.9056C31.9148 33.4478 32.7598 34.8011 33.8352 35.9657C34.9413 37.1302 36.2165 38.0429 37.6606 38.7039C39.1355 39.3333 40.7486 39.6481 42.5 39.6481Z" fill="#193B35"/>
</svg>
